<?xml version="1.0" encoding="utf-8"?>
<!-- Generator: Adobe Illustrator 16.0.0, SVG Export Plug-In . SVG Version: 6.00 Build 0)  -->
<!DOCTYPE svg PUBLIC "-//W3C//DTD SVG 1.1//EN" "http://www.w3.org/Graphics/SVG/1.1/DTD/svg11.dtd">
<svg version="1.1" id="Layer_1" xmlns="http://www.w3.org/2000/svg" xmlns:xlink="http://www.w3.org/1999/xlink" x="0px" y="0px"
	 width="50px" height="250px" viewBox="0 0 50 250" enable-background="new 0 0 50 250" xml:space="preserve">
<g>
	<g>
		<path fill="#616872" d="M24.452,28.329h-1.094c-0.568,0-1.029-0.459-1.029-1.026c0-0.21,0.084-0.413,0.235-0.56
			c0.637-0.618,1.172-1.452,1.56-2.349c0.079,0.058,0.163,0.101,0.259,0.101c0.614,0,1.339-1.358,1.339-2.284
			c0-0.926-0.086-1.677-0.701-1.677c-0.074,0-0.149,0.014-0.229,0.033c-0.044-2.511-0.678-5.643-4.511-5.643
			c-4,0-4.466,3.126-4.512,5.634c-0.056-0.011-0.112-0.025-0.165-0.025c-0.615,0-0.7,0.751-0.7,1.677
			c0,0.926,0.722,2.284,1.336,2.284c0.078,0,0.146-0.021,0.214-0.06c0.385,0.883,0.914,1.7,1.541,2.312
			c0.151,0.147,0.235,0.347,0.235,0.559c0,0.567-0.461,1.028-1.028,1.028h-1.096c-2.342,0-4.239,1.899-4.239,4.239v1.176
			c0,0.737,0.598,1.337,1.339,1.337h14.148c0.735,0,1.336-0.6,1.336-1.337v-1.176C28.689,30.229,26.793,28.329,24.452,28.329z"/>
		<path fill="#616872" d="M37.145,16.696H25.28c0.343,0.758,0.587,1.69,0.688,2.845c0.253,0.156,0.445,0.407,0.599,0.712h10.576
			c0.551,0,0.99-0.444,0.99-0.992v-1.574C38.135,17.144,37.693,16.696,37.145,16.696z"/>
		<path fill="#616872" d="M37.145,23.181H26.811c-0.277,1.06-0.97,2.167-1.928,2.463c-0.028,0.052-0.061,0.098-0.089,0.15v0.944
			h12.349c0.549,0,0.991-0.443,0.991-0.993v-1.573C38.135,23.625,37.693,23.181,37.145,23.181z"/>
		<path fill="#616872" d="M37.145,29.663H29.08c0.529,0.842,0.845,1.836,0.845,2.905v0.654h7.224c0.551,0,0.992-0.444,0.992-0.992
			v-1.574C38.135,30.104,37.693,29.663,37.145,29.663z"/>
		<path fill="#616872" d="M41.408,6.808H8.594C5.229,6.808,2.5,9.535,2.5,12.9v24.201c0,3.367,2.729,6.092,6.094,6.092h32.814
			c3.365,0,6.092-2.727,6.092-6.092V12.898C47.5,9.535,44.773,6.808,41.408,6.808z M44.625,37.102c0,1.773-1.443,3.215-3.217,3.215
			H8.594c-1.773,0-3.217-1.442-3.217-3.215V12.898c0-1.773,1.443-3.215,3.217-3.215h32.814c1.773,0,3.217,1.442,3.217,3.215V37.102
			L44.625,37.102z"/>
	</g>
</g>
<g>
	<path fill="#616872" d="M47.182,126.889l-2.014-2.948c-0.598-5.158-2.072-8.976-4.49-11.636c-2.828-3.116-6.873-4.629-12.363-4.629
		c-0.773,0-1.59,0.031-2.423,0.092c-9.354,0.684-14.364,11.459-16.347,17.06c-0.099,0.042-0.198,0.085-0.297,0.129
		c-4.544,1.997-6.751,4.22-6.746,6.796c0.001,0.972,0.573,2.011,1.852,3.366c0.929,0.984,2.197,2.083,3.57,3.094
		c1.615,1.188,5.74,3.967,9.147,4.102c0.152,0.006,0.315,0.01,0.484,0.01c0.001,0,0,0,0.001,0c5.363,0,22.341-3.163,29.606-13.346
		C47.605,128.355,47.613,127.52,47.182,126.889z M38.041,129.03c-0.434,0.29-0.876,0.565-1.325,0.829
		c-0.979,0.578-1.989,1.1-3.022,1.574c-1.965,0.902-4.02,1.645-6.129,2.123c-1.921,0.436-3.965,0.702-5.922,0.366
		c-1.883-0.325-3.735-0.967-5.417-1.874c-1.674-0.902-3.39-2.037-4.605-3.523c0.759,0.334,1.525,0.65,2.298,0.951
		c0.497-1.709,1.072-3.404,1.763-5.046c0.673-1.597,1.46-3.133,2.606-4.444c1.349-1.544,3.022-2.833,4.785-3.868
		c1.482-0.871,3.068-1.554,4.751-1.917c-0.667,0.248-1.313,0.538-1.934,0.885c-1.856,1.038-3.527,2.435-4.937,4.023
		c-0.62,0.698-1.273,1.464-1.706,2.296c-0.479,0.92-0.789,1.909-1.043,2.913c-0.501,1.993-0.795,4.042-0.988,6.086
		c-0.02,0.213-0.012,0.193,0.199,0.251c0.134,0.036,0.267,0.073,0.401,0.108c0.242,0.071,0.487,0.131,0.731,0.189
		c0.508,0.122,1.019,0.229,1.53,0.333c3.075,0.657,7.169-0.097,9.705-0.66c2.561-0.569,5.104-1.224,7.658-1.815
		c0,0,0.021-0.006,0.082-0.021c0.381-0.086,0.295-0.065,0.153-0.034c0.357-0.081,0.716-0.16,1.076-0.23
		C38.751,128.632,38.119,128.977,38.041,129.03z"/>
</g>
<g>
	<g id="Layer_8_2_">
		<path fill="#616872" d="M24.282,163.596v3.168c-0.001,1.639-4.877,2.969-10.891,2.969c-6.015,0-10.889-1.33-10.891-2.969v-3.168
			c0,1.641,4.876,2.969,10.891,2.969C19.407,166.564,24.282,165.234,24.282,163.596z M24.282,162.995
			c0,1.641-4.875,2.97-10.891,2.97c-6.015,0-10.891-1.329-10.891-2.97c0-1.642,4.876-2.97,10.891-2.97
			C19.407,160.025,24.282,161.354,24.282,162.995z M18.648,162.826l-9.567-0.652l-0.325,0.584l0.354,0.049
			c0.486,0.068,1.104,0.219,0.817,0.73l-0.089,0.158l1.768,0.121l0.089-0.16c0.123-0.221,0.161-0.409,0.115-0.57l6.447,0.439
			L18.648,162.826z M13.392,170.541c-6.015,0-10.891-1.329-10.891-2.971v3.169c0.001,1.64,4.876,2.97,10.891,2.97
			c6.014,0,10.889-1.33,10.891-2.97v-3.169C24.282,169.212,19.405,170.541,13.392,170.541z M13.392,174.541
			c-6.015,0-10.891-1.33-10.891-2.971v3.169c0.001,1.64,4.876,2.969,10.891,2.969c6.014,0,10.889-1.329,10.891-2.969v-3.169
			C24.282,173.211,19.405,174.541,13.392,174.541z M13.392,178.473c-6.015,0-10.891-1.33-10.891-2.972v3.169
			c0.001,1.639,4.876,2.969,10.891,2.969c6.014,0,10.889-1.33,10.891-2.969v-3.169C24.282,177.145,19.405,178.473,13.392,178.473z
			 M13.392,182.355c-6.015,0-10.891-1.33-10.891-2.972v3.167c0.001,1.641,4.876,2.971,10.891,2.971
			c6.014,0,10.889-1.33,10.891-2.971v-3.167C24.282,181.025,19.405,182.355,13.392,182.355z M13.392,186.23
			c-6.015,0-10.891-1.33-10.891-2.972v3.169c0.001,1.641,4.876,2.971,10.891,2.971c6.014,0,10.889-1.33,10.891-2.971v-3.169
			C24.282,184.9,19.405,186.23,13.392,186.23z M25.787,163.807h0.08v0.08c1.725,0.314,3.799,0.498,6.03,0.498
			c6.014,0,10.889-1.328,10.892-2.969v-3.168c0,1.641-4.876,2.971-10.892,2.971c-6.014,0-10.89-1.33-10.89-2.972v1.192
			c2.613,0.627,4.859,1.752,4.859,3.768C25.867,163.418,25.834,163.615,25.787,163.807z M21.007,157.646
			c0-1.641,4.876-2.97,10.891-2.97c6.015,0,10.891,1.329,10.891,2.97c0,1.643-4.876,2.972-10.891,2.972
			C25.883,160.618,21.007,159.289,21.007,157.646z M26.639,157.816l9.566,0.651l0.326-0.584l-0.355-0.049
			c-0.486-0.067-1.102-0.219-0.818-0.729l0.092-0.16l-1.768-0.12l-0.089,0.159c-0.125,0.222-0.161,0.41-0.116,0.572l-6.447-0.44
			L26.639,157.816z M31.896,168.361c6.014,0,10.889-1.33,10.892-2.969v-3.17c0,1.642-4.876,2.971-10.892,2.971
			c-2.23,0-4.306-0.185-6.03-0.498v2.279c-0.003,0.286-0.05,0.555-0.138,0.809h0.138v0.08
			C27.591,168.178,29.666,168.361,31.896,168.361z M25.867,171.783v0.08c1.725,0.313,3.799,0.498,6.03,0.498
			c6.014,0,10.889-1.33,10.892-2.971v-3.168c0,1.643-4.876,2.971-10.892,2.971c-2.23,0-4.306-0.183-6.03-0.496v2.254
			c-0.003,0.297-0.056,0.572-0.146,0.832H25.867L25.867,171.783z M42.788,173.021v-2.867c0,0.992-1.786,1.865-4.521,2.406
			C39.468,172.613,41.134,172.738,42.788,173.021z M25.867,174.577c1.057-0.72,2.636-1.188,4.268-1.493
			c-1.558-0.068-3.007-0.227-4.268-0.457V174.577z M36.609,180.249c-6.017,0-10.891-1.33-10.891-2.972v3.168
			c0.003,1.641,4.877,2.971,10.891,2.971c6.016,0,10.89-1.33,10.891-2.971v-3.168C47.501,178.919,42.625,180.249,36.609,180.249z
			 M36.609,173.709c6.016,0,10.891,1.33,10.891,2.971s-4.875,2.971-10.891,2.971c-6.017,0-10.891-1.33-10.891-2.971
			C25.719,175.039,30.596,173.709,36.609,173.709z M38.191,176.588l-6.447-0.439l-0.391,0.699l9.566,0.652l0.325-0.585l-0.354-0.048
			c-0.484-0.069-1.102-0.219-0.815-0.73l0.089-0.158l-1.77-0.121l-0.088,0.158C38.184,176.236,38.145,176.427,38.191,176.588z
			 M36.609,184.225c-6.017,0-10.891-1.33-10.891-2.971v3.169c0.003,1.642,4.877,2.972,10.891,2.972c6.016,0,10.89-1.33,10.891-2.972
			v-3.167C47.501,182.895,42.625,184.225,36.609,184.225z M36.609,188.225c-6.017,0-10.891-1.33-10.891-2.971v3.168
			c0.003,1.639,4.877,2.971,10.891,2.971c6.016,0,10.89-1.332,10.891-2.971v-3.168C47.501,186.896,42.625,188.225,36.609,188.225z
			 M36.609,192.156c-6.017,0-10.891-1.33-10.891-2.971v3.168c0.003,1.641,4.877,2.97,10.891,2.97c6.016,0,10.89-1.329,10.891-2.97
			v-3.168C47.501,190.826,42.625,192.156,36.609,192.156z"/>
	</g>
</g>
<g>
	<path fill="#616872" d="M25,202.5C12.575,202.5,2.5,212.574,2.5,224.999S12.575,247.5,25,247.5c12.424,0,22.5-10.076,22.5-22.501
		S37.424,202.5,25,202.5z M29.684,237.37c-1.158,0.458-2.08,0.804-2.771,1.044c-0.689,0.24-1.491,0.359-2.403,0.359
		c-1.402,0-2.494-0.342-3.271-1.025c-0.777-0.686-1.164-1.551-1.164-2.604c0-0.41,0.029-0.828,0.086-1.256
		c0.059-0.427,0.152-0.906,0.28-1.445l1.45-5.12c0.128-0.491,0.238-0.958,0.326-1.392c0.087-0.438,0.129-0.841,0.129-1.207
		c0-0.65-0.135-1.107-0.404-1.365c-0.272-0.258-0.785-0.383-1.548-0.383c-0.374,0-0.758,0.056-1.152,0.172
		c-0.391,0.119-0.729,0.229-1.008,0.336l0.383-1.578c0.949-0.387,1.857-0.719,2.724-0.992c0.867-0.277,1.686-0.415,2.458-0.415
		c1.392,0,2.465,0.339,3.221,1.01c0.754,0.673,1.133,1.546,1.133,2.621c0,0.224-0.026,0.615-0.078,1.175
		c-0.053,0.563-0.148,1.074-0.289,1.545l-1.442,5.104c-0.118,0.41-0.223,0.878-0.317,1.401c-0.093,0.523-0.138,0.924-0.138,1.192
		c0,0.679,0.149,1.142,0.454,1.388c0.302,0.244,0.829,0.369,1.575,0.369c0.354,0,0.747-0.063,1.191-0.186
		c0.442-0.122,0.763-0.23,0.965-0.324L29.684,237.37z M29.428,216.65c-0.673,0.625-1.482,0.938-2.429,0.938
		c-0.944,0-1.76-0.313-2.438-0.938c-0.674-0.625-1.015-1.385-1.015-2.272c0-0.886,0.343-1.647,1.015-2.278
		c0.677-0.632,1.493-0.945,2.438-0.945c0.946,0,1.758,0.313,2.429,0.945c0.672,0.631,1.01,1.394,1.01,2.278
		C30.438,215.268,30.1,216.025,29.428,216.65z"/>
</g>
<path fill="#616872" d="M45.038,54.706c-0.021-0.33-0.294-0.587-0.624-0.587h-8.97c-0.331,0-0.604,0.257-0.624,0.587l-1.019,16.775
	h-2.741v-7.576c0-0.225-0.119-0.433-0.315-0.544c-0.195-0.112-0.435-0.108-0.628,0.006l-11.843,7.047v-6.509
	c0-0.223-0.118-0.429-0.31-0.54c-0.191-0.113-0.429-0.114-0.622-0.005L2.818,71.562C2.622,71.672,2.5,71.881,2.5,72.106v23.149
	c0,0.346,0.28,0.625,0.625,0.625h43.75c0.172,0,0.337-0.071,0.455-0.197c0.119-0.125,0.18-0.293,0.169-0.466L45.038,54.706z
	 M17.641,82.875H9.016v-5.25h8.625V82.875z M30.015,82.875H21.39v-5.25h8.625V82.875z"/>
</svg>
