<?xml version="1.0" encoding="utf-8"?>
<!-- Generator: Adobe Illustrator 16.0.0, SVG Export Plug-In . SVG Version: 6.00 Build 0)  -->
<!DOCTYPE svg PUBLIC "-//W3C//DTD SVG 1.1//EN" "http://www.w3.org/Graphics/SVG/1.1/DTD/svg11.dtd">
<svg version="1.1" id="Layer_1" xmlns="http://www.w3.org/2000/svg" xmlns:xlink="http://www.w3.org/1999/xlink" x="0px" y="0px"
	 width="100px" height="450px" viewBox="0 0 100 450" enable-background="new 0 0 100 450" xml:space="preserve">
<g>
	<g>
		<path fill="#5E6570" d="M42.285,91.787c-0.376-7.148-6.802-10.105-6.802-10.105c-1.535-0.719-4.318-2.123-6.144-3.053
			c2.337-2.558,3.026-6.729,3.136-7.321c0.487-2.686,0.242-6.009,0.242-6.009c-0.445-6.462-6.971-6.562-7.654-6.557
			c-0.037,0-0.062,0-0.062,0s-0.021,0-0.052,0c-0.62-0.008-7.216,0.058-7.665,6.557c0,0-0.245,3.323,0.243,6.009
			c0.032,0.173,0.115,0.654,0.271,1.307c1.229,1.613,3.126,2.404,4.683,2.792c0.196-0.19,0.463-0.309,0.758-0.309h2.839
			c0.6,0,1.087,0.486,1.087,1.087c0,0.602-0.487,1.088-1.087,1.088h-2.839c-0.448,0-0.831-0.271-0.998-0.656
			c-1.162-0.282-2.506-0.775-3.706-1.62c0.479,1.243,1.161,2.575,2.127,3.633c-1.825,0.93-4.606,2.334-6.143,3.053
			c0,0-6.424,2.957-6.801,10.105c0,0-0.112,1.188,2.142,1.639C9.857,93.424,16.759,95,25,95s15.142-1.575,15.142-1.575
			C42.396,92.976,42.285,91.787,42.285,91.787z"/>
		<path fill="#5E6570" d="M15.078,73.625h0.686V65.57c0.001-0.021,0.006-0.04,0.006-0.061v-1.188c0-2.12,0.654-3.838,1.945-5.108
			c2.67-2.627,7.23-2.591,7.308-2.581c0.054-0.004,4.576-0.068,7.258,2.557c1.299,1.271,1.957,2.999,1.957,5.133v1.257
			c0,0.012,0.004,0.024,0.004,0.036v8.01h0.687c1.688,0,3.056-1.368,3.056-3.055v-2.937c0-1.356-0.887-2.506-2.111-2.903v-0.408
			c0-2.589-0.825-4.708-2.448-6.299c-3.167-3.101-8.228-3.021-8.403-3.022c-0.212-0.002-5.276-0.063-8.441,3.041
			c-1.619,1.589-2.441,3.702-2.441,6.28v0.405c-1.227,0.396-2.114,1.547-2.114,2.905v2.937
			C12.021,72.255,13.391,73.625,15.078,73.625z"/>
	</g>
</g>
<path fill="#5E6570" d="M45,125.651v16.22c0,0.543-0.439,0.984-0.982,0.984H5.983c-0.543,0-0.983-0.438-0.983-0.982v-11.477
	c0-0.373,0.211-0.713,0.544-0.88l9.508-4.743c0.305-0.152,0.667-0.136,0.957,0.043c0.29,0.179,0.466,0.496,0.466,0.836v3.153
	l5.822-2.904v-9.606c0-0.543,0.44-0.982,0.983-0.982h1.785c0.543,0,0.983,0.439,0.983,0.982v12.479l6.496-3.24l0.401-17.427
	c0.013-0.534,0.449-0.961,0.984-0.961h4.287c0.534,0,0.971,0.427,0.983,0.961l0.43,18.635l3.944-1.967
	c0.305-0.152,0.667-0.135,0.955,0.044C44.824,124.996,45,125.312,45,125.651z M11.9,134.896H9.24v3.738h2.66V134.896z
	 M19.105,134.896h-2.661v3.738h2.661V134.896z M26.312,134.896H23.65v3.738h2.661L26.312,134.896L26.312,134.896z M33.517,134.896
	h-2.66v3.738h2.66V134.896z"/>
<g>
	<g>
		<path fill="#5E6570" d="M31.302,182.691H19.057c-2.265,0-4.131,1.882-4.131,4.146v6.389H35.38v-6.389
			C35.383,184.573,33.564,182.691,31.302,182.691z"/>
		<circle fill="#5E6570" cx="25.181" cy="174.486" r="5.879"/>
		<path fill="#5E6570" d="M16.265,166.806c0-1.248-1.006-2.258-2.251-2.258H7.276c-1.245,0-2.276,1.011-2.276,2.258v3.526h11.264
			L16.265,166.806L16.265,166.806z"/>
		<circle fill="#5E6570" cx="10.646" cy="160.009" r="3.234"/>
		<path fill="#5E6570" d="M42.779,164.546h-6.734c-1.247,0-2.247,1.01-2.247,2.258v3.526H45v-3.524
			C45,165.559,44.025,164.546,42.779,164.546z"/>
		<circle fill="#5E6570" cx="39.413" cy="160.009" r="3.234"/>
		<path fill="#5E6570" d="M20.196,164.791h10.35c0.714,0,1.294-0.562,1.294-1.278c0-0.715-0.58-1.279-1.294-1.279h-10.35
			c-0.715,0-1.293,0.564-1.293,1.279C18.903,164.228,19.481,164.791,20.196,164.791z"/>
		<path fill="#5E6570" d="M16.065,181.238c0.263,0,0.528-0.079,0.758-0.245c0.58-0.421,0.707-1.228,0.289-1.806l-4.72-6.518
			c-0.421-0.582-1.228-0.709-1.806-0.29c-0.58,0.419-0.708,1.229-0.289,1.808l4.72,6.518
			C15.271,181.054,15.666,181.238,16.065,181.238z"/>
		<path fill="#5E6570" d="M38.734,172.502c-0.602-0.388-1.4-0.21-1.784,0.392l-4.071,6.354c-0.389,0.601-0.211,1.398,0.389,1.787
			c0.215,0.137,0.457,0.203,0.699,0.203c0.426,0,0.844-0.208,1.088-0.598l4.071-6.353C39.515,173.691,39.337,172.892,38.734,172.502
			z"/>
	</g>
</g>
<g>
	<g>
		<path fill="#5E6570" d="M26.349,205.5c-0.32-0.322-0.824-0.5-1.328-0.5c-0.451,0-1.008,0.178-1.329,0.5l-9.954,10.023
			c-0.489,0.492-0.633,1.229-0.364,1.867c0.267,0.639,0.892,1.055,1.584,1.053l3.249-0.023l-0.048,14.223
			c0.006,1.404,1.149,2.549,2.559,2.549h8.604c1.408,0,2.553-1.145,2.559-2.549l-0.047-14.221l3.248,0.023
			c0.691,0.002,1.32-0.414,1.585-1.055c0.269-0.639,0.126-1.375-0.364-1.867L26.349,205.5z"/>
		<path fill="#5E6570" d="M42.062,221.916c-1.416,0-2.572,1.146-2.572,2.562v14.314c0,0.592-0.455,1.062-1.051,1.062H11.523
			c-0.593,0-1.082-0.472-1.082-1.062v-14.314c0-1.416-1.119-2.562-2.536-2.562c-1.416,0-2.537,1.146-2.537,2.562v14.312
			c0,3.422,2.734,6.209,6.156,6.209h26.914c3.422,0,6.197-2.787,6.197-6.209v-14.312C44.635,223.062,43.478,221.916,42.062,221.916z
			"/>
	</g>
</g>
<g>
	<g>
		<path fill="#5E6570" d="M37.537,330.424c-2.313,0-4.356,1.102-5.69,2.793l-12.38-6.332c0.162-0.604,0.279-1.229,0.279-1.885
			c0-0.717-0.139-1.391-0.332-2.045l12.322-6.303c1.328,1.768,3.425,2.922,5.804,2.922c4.03,0,7.291-3.262,7.291-7.287
			c0-4.023-3.261-7.287-7.291-7.287c-4.021,0-7.286,3.264-7.286,7.287c0,0.658,0.117,1.283,0.28,1.891l-12.376,6.33
			c-1.336-1.691-3.383-2.799-5.702-2.799c-4.026,0-7.286,3.266-7.286,7.291c0,4.023,3.26,7.287,7.286,7.287
			c2.383,0,4.478-1.158,5.81-2.926l12.317,6.301c-0.191,0.652-0.333,1.334-0.333,2.051c0,4.023,3.265,7.287,7.285,7.287
			c4.031,0,7.292-3.264,7.292-7.287C44.829,333.684,41.567,330.424,37.537,330.424z"/>
	</g>
</g>
<g>
	<g>
		<path fill="#FFFFFF" d="M92.283,91.787c-0.376-7.148-6.803-10.105-6.803-10.105c-1.535-0.719-4.317-2.123-6.146-3.053
			c2.337-2.558,3.023-6.729,3.139-7.321c0.484-2.686,0.239-6.009,0.239-6.009c-0.442-6.462-6.971-6.562-7.651-6.557
			c-0.037,0-0.062,0-0.062,0s-0.021,0-0.056,0c-0.616-0.008-7.215,0.058-7.661,6.557c0,0-0.245,3.323,0.239,6.009
			c0.033,0.173,0.113,0.654,0.271,1.307c1.229,1.613,3.126,2.404,4.686,2.792c0.193-0.19,0.463-0.309,0.758-0.309h2.842
			c0.6,0,1.087,0.486,1.087,1.087c0,0.602-0.487,1.088-1.087,1.088h-2.842c-0.445,0-0.83-0.271-0.998-0.656
			c-1.159-0.282-2.506-0.775-3.703-1.62c0.479,1.243,1.158,2.575,2.127,3.633c-1.825,0.93-4.604,2.334-6.146,3.053
			c0,0-6.425,2.957-6.802,10.105c0,0-0.11,1.188,2.144,1.639c0,0,6.9,1.575,15.145,1.575c8.236,0,15.145-1.575,15.145-1.575
			C92.396,92.976,92.283,91.787,92.283,91.787z"/>
		<path fill="#FFFFFF" d="M65.076,73.625h0.686V65.57c0.002-0.021,0.006-0.04,0.006-0.061v-1.188c0-2.12,0.654-3.838,1.945-5.108
			c2.67-2.627,7.23-2.591,7.309-2.581c0.058-0.004,4.576-0.068,7.258,2.557c1.303,1.271,1.957,2.999,1.957,5.133v1.257
			c0,0.012,0.008,0.024,0.008,0.036v8.01h0.688c1.688,0,3.057-1.368,3.057-3.055v-2.937c0-1.356-0.887-2.506-2.109-2.903v-0.408
			c0-2.589-0.824-4.708-2.447-6.299c-3.166-3.101-8.229-3.021-8.402-3.022c-0.213-0.002-5.273-0.063-8.438,3.041
			c-1.618,1.589-2.438,3.702-2.438,6.28v0.405c-1.229,0.396-2.112,1.547-2.112,2.905v2.937
			C62.021,72.255,63.389,73.625,65.076,73.625z"/>
	</g>
</g>
<path fill="#FFFFFF" d="M95,125.651v16.22c0,0.543-0.439,0.984-0.982,0.984H55.982c-0.543,0-0.982-0.44-0.982-0.984v-11.475
	c0-0.373,0.211-0.713,0.544-0.88l9.508-4.743c0.306-0.152,0.667-0.136,0.957,0.043c0.29,0.179,0.466,0.496,0.466,0.836v3.153
	l5.822-2.904v-9.606c0-0.543,0.439-0.982,0.982-0.982h1.785c0.543,0,0.979,0.439,0.979,0.982v12.479l6.496-3.24l0.396-17.427
	c0.018-0.534,0.449-0.961,0.984-0.961h4.287c0.534,0,0.971,0.427,0.982,0.961l0.431,18.635l3.944-1.967
	c0.305-0.152,0.666-0.135,0.955,0.044C94.823,124.996,95,125.312,95,125.651z M61.9,134.896h-2.66v3.738h2.66V134.896z
	 M69.105,134.896h-2.662v3.738h2.662V134.896z M76.311,134.896h-2.66v3.738h2.66V134.896z M83.516,134.896h-2.66v3.738h2.66V134.896
	z"/>
<g>
	<g>
		<path fill="#FFFFFF" d="M81.302,182.691H69.057c-2.266,0-4.132,1.882-4.132,4.146v6.389H85.38v-6.389
			C85.383,184.573,83.564,182.691,81.302,182.691z"/>
		<circle fill="#FFFFFF" cx="75.18" cy="174.486" r="5.879"/>
		<path fill="#FFFFFF" d="M66.264,166.806c0-1.248-1.006-2.258-2.25-2.258h-6.738c-1.239,0-2.271,1.011-2.271,2.258v3.526H66.27
			v-3.526H66.264z"/>
		<circle fill="#FFFFFF" cx="60.645" cy="160.009" r="3.234"/>
		<path fill="#FFFFFF" d="M92.779,164.546h-6.734c-1.247,0-2.247,1.01-2.247,2.258v3.526H95v-3.524
			C95,165.559,94.025,164.546,92.779,164.546z"/>
		<circle fill="#FFFFFF" cx="89.412" cy="160.009" r="3.234"/>
		<path fill="#FFFFFF" d="M70.195,164.791h10.351c0.714,0,1.294-0.562,1.294-1.278c0-0.715-0.58-1.279-1.294-1.279H70.195
			c-0.715,0-1.293,0.564-1.293,1.279C68.902,164.228,69.48,164.791,70.195,164.791z"/>
		<path fill="#FFFFFF" d="M66.064,181.238c0.264,0,0.523-0.079,0.759-0.245c0.579-0.421,0.706-1.228,0.288-1.806l-4.719-6.518
			c-0.422-0.582-1.229-0.709-1.812-0.29s-0.708,1.229-0.289,1.808l4.726,6.518C65.27,181.054,65.665,181.238,66.064,181.238z"/>
		<path fill="#FFFFFF" d="M88.734,172.502c-0.604-0.388-1.4-0.21-1.784,0.392l-4.071,6.354c-0.389,0.601-0.211,1.398,0.389,1.787
			c0.215,0.137,0.457,0.203,0.699,0.203c0.426,0,0.844-0.208,1.088-0.598l4.071-6.353C89.514,173.691,89.337,172.892,88.734,172.502
			z"/>
	</g>
</g>
<g>
	<g>
		<path fill="#FFFFFF" d="M76.348,205.5c-0.32-0.322-0.824-0.5-1.328-0.5c-0.449,0-1.008,0.178-1.328,0.5l-9.953,10.023
			c-0.485,0.492-0.633,1.229-0.36,1.867c0.271,0.637,0.896,1.055,1.584,1.053l3.25-0.023l-0.049,14.223
			c0.006,1.404,1.146,2.549,2.56,2.549h8.604c1.406,0,2.554-1.145,2.56-2.549l-0.047-14.221l3.248,0.023
			c0.688,0.002,1.317-0.414,1.586-1.055c0.271-0.639,0.125-1.375-0.362-1.867L76.348,205.5z"/>
		<path fill="#FFFFFF" d="M92.061,221.916c-1.416,0-2.572,1.146-2.572,2.562v14.314c0,0.592-0.45,1.062-1.051,1.062H61.523
			c-0.598,0-1.082-0.472-1.082-1.062v-14.314c0-1.416-1.119-2.562-2.537-2.562c-1.416,0-2.535,1.146-2.535,2.562v14.312
			c0,3.422,2.732,6.209,6.154,6.209h26.914c3.422,0,6.192-2.787,6.192-6.209v-14.312C94.635,223.062,93.477,221.916,92.061,221.916z
			"/>
	</g>
</g>
<g>
	<g>
		<path fill="#FFFFFF" d="M87.537,330.424c-2.314,0-4.357,1.102-5.691,2.793l-12.379-6.332c0.162-0.604,0.279-1.229,0.279-1.885
			c0-0.717-0.141-1.391-0.332-2.045l12.322-6.303c1.328,1.768,3.424,2.922,5.803,2.922c4.031,0,7.291-3.262,7.291-7.287
			c0-4.023-3.26-7.287-7.291-7.287c-4.02,0-7.285,3.264-7.285,7.287c0,0.658,0.117,1.283,0.279,1.891l-12.375,6.33
			c-1.338-1.691-3.385-2.799-5.703-2.799c-4.025,0-7.285,3.266-7.285,7.291c0,4.023,3.26,7.287,7.285,7.287
			c2.383,0,4.479-1.158,5.811-2.926l12.316,6.301c-0.191,0.652-0.332,1.334-0.332,2.051c0,4.023,3.264,7.287,7.285,7.287
			c4.031,0,7.291-3.264,7.291-7.287C94.828,333.684,91.568,330.424,87.537,330.424z"/>
	</g>
</g>
<g id="Settings">
	<g>
		<path fill="#5E6570" d="M44.875,372.779c-0.063-0.563-0.719-0.984-1.286-0.984c-1.833,0-3.459-1.076-4.141-2.74
			c-0.697-1.705-0.248-3.693,1.118-4.945c0.43-0.395,0.482-1.053,0.122-1.51c-0.938-1.188-2.005-2.268-3.169-3.199
			c-0.456-0.363-1.125-0.313-1.52,0.123c-1.192,1.32-3.333,1.813-4.988,1.121c-1.722-0.727-2.808-2.471-2.702-4.344
			c0.035-0.588-0.395-1.1-0.982-1.168c-1.494-0.174-3-0.178-4.499-0.012c-0.58,0.064-1.01,0.563-0.99,1.145
			c0.065,1.854-1.034,3.568-2.739,4.271c-1.635,0.666-3.761,0.18-4.951-1.131c-0.394-0.432-1.051-0.48-1.509-0.127
			c-1.199,0.939-2.289,2.02-3.236,3.199c-0.369,0.459-0.315,1.125,0.12,1.521c1.392,1.26,1.841,3.268,1.118,4.988
			c-0.69,1.645-2.397,2.703-4.352,2.703c-0.634-0.021-1.086,0.406-1.155,0.979c-0.176,1.504-0.178,3.035-0.009,4.553
			c0.063,0.562,0.738,0.98,1.312,0.98c1.742-0.045,3.414,1.031,4.115,2.738c0.699,1.705,0.25,3.689-1.118,4.945
			c-0.428,0.393-0.482,1.051-0.122,1.508c0.93,1.186,1.996,2.26,3.164,3.201c0.458,0.367,1.125,0.314,1.522-0.121
			c1.196-1.324,3.338-1.812,4.986-1.121c1.726,0.723,2.812,2.467,2.706,4.34c-0.034,0.592,0.397,1.104,0.982,1.168
			c0.764,0.092,1.533,0.137,2.304,0.137c0.732,0,1.464-0.041,2.195-0.123c0.581-0.063,1.01-0.563,0.991-1.146
			c-0.067-1.854,1.034-3.566,2.736-4.268c1.646-0.672,3.763-0.18,4.953,1.127c0.396,0.434,1.049,0.482,1.51,0.127
			c1.196-0.938,2.284-2.014,3.235-3.197c0.369-0.457,0.317-1.125-0.119-1.521c-1.393-1.263-1.844-3.269-1.121-4.99
			c0.68-1.618,2.324-2.711,4.092-2.711l0.247,0.011c0.573,0.045,1.102-0.396,1.171-0.981
			C45.042,375.822,45.043,374.293,44.875,372.779z M25.034,381.713c-3.679,0-6.671-2.992-6.671-6.672c0-3.678,2.993-6.67,6.671-6.67
			c3.678,0,6.67,2.992,6.67,6.67C31.704,378.721,28.71,381.713,25.034,381.713z"/>
	</g>
</g>
<g>
	<path fill="#5E6570" d="M41.356,421.35H28.639v-12.709c0-2.01-1.623-3.641-3.634-3.641c-2.012,0-3.633,1.631-3.633,3.643v12.717
		H8.647c-2.012,0-3.647,1.633-3.646,3.645c0,1.004,0.405,1.928,1.063,2.584c0.659,0.66,1.568,1.078,2.573,1.078H21.37v12.695
		c0,1.008,0.399,1.916,1.058,2.572C23.087,444.592,23.995,445,25,445c2.01,0,3.637-1.631,3.637-3.641v-12.697h12.718
		c2.011,0,3.642-1.646,3.641-3.658C44.997,422.992,43.366,421.35,41.356,421.35z"/>
</g>
<g id="Settings_1_">
	<g>
		<path fill="#FFFFFF" d="M94.875,372.779c-0.063-0.563-0.721-0.984-1.286-0.984c-1.832,0-3.459-1.076-4.141-2.74
			c-0.697-1.705-0.248-3.693,1.116-4.945c0.433-0.395,0.479-1.053,0.123-1.51c-0.938-1.188-2.006-2.268-3.17-3.199
			c-0.455-0.363-1.123-0.313-1.521,0.123c-1.188,1.32-3.332,1.813-4.987,1.121c-1.722-0.727-2.808-2.471-2.698-4.344
			c0.031-0.588-0.396-1.1-0.981-1.168c-1.493-0.174-3.001-0.178-4.499-0.012c-0.58,0.064-1.01,0.563-0.99,1.145
			c0.064,1.854-1.033,3.568-2.738,4.271c-1.635,0.666-3.762,0.18-4.951-1.131c-0.394-0.432-1.051-0.48-1.51-0.127
			c-1.197,0.939-2.289,2.02-3.232,3.199c-0.368,0.459-0.314,1.125,0.117,1.521c1.395,1.26,1.845,3.268,1.117,4.988
			c-0.688,1.645-2.396,2.703-4.352,2.703c-0.635-0.021-1.086,0.406-1.154,0.979c-0.176,1.504-0.179,3.035-0.01,4.553
			c0.063,0.562,0.738,0.98,1.313,0.98c1.737-0.045,3.412,1.031,4.111,2.738c0.699,1.705,0.249,3.689-1.115,4.945
			c-0.432,0.393-0.482,1.051-0.121,1.508c0.93,1.186,1.996,2.26,3.164,3.201c0.457,0.367,1.125,0.314,1.521-0.121
			c1.196-1.324,3.338-1.812,4.985-1.121c1.728,0.723,2.812,2.467,2.705,4.34c-0.033,0.592,0.396,1.104,0.979,1.168
			c0.767,0.092,1.533,0.137,2.308,0.137c0.729,0,1.463-0.041,2.191-0.123c0.581-0.063,1.014-0.563,0.991-1.146
			c-0.068-1.854,1.03-3.566,2.731-4.268c1.646-0.672,3.767-0.18,4.953,1.127c0.396,0.434,1.051,0.482,1.51,0.127
			c1.197-0.938,2.285-2.014,3.235-3.197c0.369-0.457,0.317-1.125-0.118-1.521c-1.394-1.263-1.845-3.269-1.121-4.99
			c0.683-1.618,2.323-2.711,4.092-2.711l0.246,0.011c0.574,0.045,1.104-0.396,1.172-0.981
			C95.042,375.822,95.044,374.293,94.875,372.779z M75.032,381.713c-3.679,0-6.673-2.992-6.673-6.672c0-3.678,2.994-6.67,6.673-6.67
			s6.671,2.992,6.671,6.67C81.703,378.721,78.711,381.713,75.032,381.713z"/>
	</g>
</g>
<g>
	<path fill="#FFFFFF" d="M91.355,421.35H78.639v-12.709c0-2.01-1.623-3.641-3.635-3.641s-3.634,1.631-3.634,3.643v12.717H58.646
		c-2.013,0-3.646,1.633-3.646,3.645c0,1.004,0.404,1.928,1.063,2.584c0.66,0.66,1.566,1.078,2.574,1.078h12.73v12.695
		c0,1.008,0.398,1.916,1.06,2.572C73.087,444.592,73.994,445,75,445c2.01,0,3.637-1.631,3.637-3.641v-12.697h12.719
		c2.014,0,3.645-1.646,3.645-3.658C94.996,422.992,93.363,421.35,91.355,421.35z"/>
</g>
<g>
	<path fill="#5E6570" d="M15.625,268.75l6.25-5h-11.86C7.245,263.75,5,266,5,268.73v17.539c0,2.75,2.243,4.979,5.015,4.979h24.97
		c2.77,0,5.015-2.25,5.015-4.979v-9.021l-5,4v5H10v-17.5L15.625,268.75L15.625,268.75z"/>
	<path fill="#5E6570" d="M32.5,263.691c-8.848,0.088-17.583,7.811-17.583,17.615c4.235-4.125,9.25-7.841,17.583-7.539v4.98l12.5-10
		l-12.5-10V263.691z"/>
</g>
<g>
	<path fill="#FFFFFF" d="M65.625,268.75l6.25-5H60.016c-2.771,0-5.016,2.25-5.016,4.98v17.539c0,2.75,2.242,4.979,5.016,4.979
		h24.971c2.771,0,5.016-2.25,5.016-4.979v-9.021l-5,4v5H60v-17.5L65.625,268.75L65.625,268.75z"/>
	<path fill="#FFFFFF" d="M82.5,263.691c-8.848,0.088-17.582,7.811-17.582,17.615c4.234-4.125,9.25-7.841,17.582-7.539v4.98l12.5-10
		l-12.5-10V263.691z"/>
</g>
<g id="Group">
	<path fill="#5E6570" d="M25,25.018c3.506,0,6.232-3.638,6.232-7.402v-1.18C31.232,12.672,28.505,10,25,10
		c-3.507,0-6.233,2.672-6.233,6.436v1.18C18.766,21.38,21.493,25.018,25,25.018z M12.511,26.234c1.003,0,3.746-1.301,3.746-4v-2
		c0-2.699-1.979-4-3.746-4c-1.708,0-3.746,1.301-3.746,4v2C8.765,24.934,11.562,26.234,12.511,26.234z M34.957,31.234
		c-0.002-0.02-0.008-0.037-0.01-0.057c-0.03-0.236-0.075-0.467-0.137-0.691c0-0.002,0-0.004-0.003-0.007
		c-0.13-0.479-0.351-0.94-0.682-1.396v-0.003c-0.54-0.749-1.357-1.513-2.684-2.257c-0.7-0.395-1.01-0.574-1.442-0.574
		c-0.69,0-1.292,0.535-2.305,1.467h-0.002l-0.922,0.848C26.738,28.596,25.744,30,25,30c-0.743,0-1.738-1.404-1.771-1.436
		l-0.922-0.848h-0.002C21.292,26.785,20.69,26.25,20,26.25c-0.435,0-0.82,0.18-1.443,0.574c-1.286,0.812-2.143,1.508-2.682,2.256
		l-0.002,0.001c-0.002,0.002-0.002,0.005-0.004,0.007c-0.326,0.451-0.545,0.91-0.676,1.387c-0.002,0.004-0.004,0.008-0.006,0.013
		c-0.061,0.225-0.105,0.452-0.135,0.685c-0.002,0.021-0.008,0.042-0.01,0.064C15.016,31.484,15,31.736,15,32c0,0.029,0,5.474,0,5.5
		c0,1.777,0.67,2.5,2.5,2.5H32.5c1.846,0,2.5-0.685,2.5-2.5c0-0.026,0-5.471,0-5.5C34.999,31.737,34.983,31.484,34.957,31.234z
		 M37.51,26.234c1.002,0,3.745-1.301,3.745-4v-2c0-2.699-1.979-4-3.745-4c-1.709,0-3.747,1.301-3.747,4v2
		C33.763,24.934,36.56,26.234,37.51,26.234z M7.844,28.94C5.518,30.266,5,32.377,5,33.75c0,0.021-0.002,2.479,0,2.5
		c0,1.814,0.609,2.5,2.5,2.5h5c0,0,0-5.313,0-7.5L11.25,30C9.928,28.834,8.813,28.391,7.844,28.94z M12.5,31.25
		C12.528,31.273,12.5,30.656,12.5,31.25L12.5,31.25z M44.999,33.75c0-1.373-0.518-3.484-2.844-4.81
		c-0.969-0.55-2.083-0.106-3.405,1.06l-1.25,1.25c0,2.188,0,7.5,0,7.5h4.999c1.891,0,2.5-0.686,2.5-2.5
		C45.001,36.229,44.999,33.771,44.999,33.75z M37.499,31.25C37.499,30.656,37.471,31.273,37.499,31.25L37.499,31.25z"/>
</g>
<g id="Group_1_">
	<path fill="#FFFFFF" d="M75,25.017c3.506,0,6.232-3.637,6.232-7.402v-1.18C81.232,12.672,78.506,10,75,10
		c-3.507,0-6.233,2.671-6.233,6.435v1.18C68.767,21.38,71.493,25.017,75,25.017z M62.512,26.234c1.003,0,3.746-1.301,3.746-4v-2
		c0-2.699-1.979-4-3.746-4c-1.708,0-3.746,1.3-3.746,4v2C58.766,24.934,61.563,26.234,62.512,26.234z M84.957,31.235
		c-0.002-0.02-0.008-0.038-0.01-0.058c-0.03-0.235-0.075-0.466-0.137-0.691c0-0.002,0-0.004-0.003-0.006
		c-0.13-0.479-0.351-0.941-0.682-1.396v-0.002c-0.54-0.749-1.357-1.513-2.684-2.257c-0.7-0.394-1.01-0.574-1.442-0.574
		c-0.69,0-1.292,0.536-2.305,1.467h-0.002l-0.922,0.847C76.738,28.595,75.744,30,75,30c-0.743,0-1.738-1.404-1.771-1.436
		l-0.922-0.847h-0.002c-1.013-0.931-1.614-1.467-2.304-1.467c-0.435,0-0.82,0.181-1.443,0.574c-1.286,0.812-2.143,1.508-2.682,2.256
		l-0.002,0.001c-0.002,0.002-0.002,0.005-0.004,0.006c-0.326,0.451-0.545,0.91-0.676,1.387c-0.002,0.004-0.004,0.008-0.006,0.013
		c-0.061,0.225-0.105,0.452-0.135,0.685c-0.002,0.022-0.008,0.042-0.01,0.064c-0.027,0.248-0.043,0.5-0.043,0.763
		c0,0.029,0,5.474,0,5.5c0,1.777,0.67,2.5,2.5,2.5H82.5c1.846,0,2.5-0.684,2.5-2.5c0-0.026,0-5.471,0-5.5
		C84.999,31.737,84.983,31.484,84.957,31.235z M87.511,26.234c1.002,0,3.745-1.301,3.745-4v-2c0-2.699-1.979-4-3.745-4
		c-1.709,0-3.747,1.3-3.747,4v2C83.764,24.934,86.561,26.234,87.511,26.234z M57.845,28.94c-2.326,1.325-2.844,3.436-2.844,4.809
		c0,0.021-0.002,2.48,0,2.5c0,1.814,0.609,2.5,2.5,2.5h5c0,0,0-5.313,0-7.5L61.251,30C59.929,28.833,58.813,28.39,57.845,28.94z
		 M62.501,31.25C62.528,31.273,62.501,30.656,62.501,31.25L62.501,31.25z M94.999,33.75c0-1.373-0.518-3.484-2.844-4.809
		c-0.969-0.55-2.083-0.107-3.405,1.059l-1.25,1.25c0,2.188,0,7.5,0,7.5h4.999c1.891,0,2.5-0.686,2.5-2.5
		C95.002,36.229,94.999,33.771,94.999,33.75z M87.499,31.25C87.499,30.656,87.472,31.273,87.499,31.25L87.499,31.25z"/>
</g>
</svg>
