<?xml version="1.0" encoding="utf-8"?>
<!-- Generator: Adobe Illustrator 16.0.0, SVG Export Plug-In . SVG Version: 6.00 Build 0)  -->
<!DOCTYPE svg PUBLIC "-//W3C//DTD SVG 1.1//EN" "http://www.w3.org/Graphics/SVG/1.1/DTD/svg11.dtd">
<svg version="1.1" id="Layer_1" xmlns="http://www.w3.org/2000/svg" xmlns:xlink="http://www.w3.org/1999/xlink" x="0px" y="0px"
	 width="50px" height="300px" viewBox="0 0 50 300" enable-background="new 0 0 50 300" xml:space="preserve">
<g>
	<g>
		<path fill="#5F6670" d="M24.451,28.329h-1.094c-0.568,0-1.029-0.459-1.029-1.026c0-0.21,0.084-0.413,0.235-0.56
			c0.637-0.618,1.172-1.452,1.56-2.349c0.079,0.058,0.163,0.101,0.259,0.101c0.614,0,1.339-1.358,1.339-2.284
			s-0.086-1.677-0.702-1.677c-0.073,0-0.15,0.014-0.229,0.033c-0.044-2.511-0.678-5.643-4.511-5.643c-4,0-4.466,3.126-4.512,5.634
			c-0.056-0.011-0.112-0.025-0.165-0.025c-0.615,0-0.7,0.751-0.7,1.677s0.722,2.284,1.336,2.284c0.078,0,0.147-0.021,0.214-0.06
			c0.385,0.883,0.914,1.7,1.541,2.312c0.151,0.147,0.235,0.347,0.235,0.559c0,0.567-0.461,1.028-1.028,1.028h-1.096
			c-2.342,0-4.239,1.899-4.239,4.239v1.176c0,0.737,0.598,1.337,1.339,1.337h14.149c0.736,0,1.336-0.6,1.336-1.337v-1.176
			C28.689,30.229,26.793,28.329,24.451,28.329z"/>
		<path fill="#5F6670" d="M37.145,16.697H25.279c0.343,0.758,0.587,1.69,0.689,2.845c0.253,0.156,0.445,0.407,0.599,0.712h10.576
			c0.551,0,0.991-0.444,0.991-0.992v-1.574C38.135,17.144,37.693,16.697,37.145,16.697z"/>
		<path fill="#5F6670" d="M37.145,23.181H26.811c-0.279,1.06-0.971,2.167-1.929,2.463c-0.028,0.052-0.061,0.098-0.089,0.15v0.944
			h12.35c0.549,0,0.991-0.443,0.991-0.993v-1.573C38.135,23.625,37.693,23.181,37.145,23.181z"/>
		<path fill="#5F6670" d="M37.145,29.663h-8.066c0.531,0.842,0.845,1.836,0.845,2.905v0.654h7.222c0.551,0,0.992-0.444,0.992-0.992
			v-1.574C38.135,30.105,37.693,29.663,37.145,29.663z"/>
		<path fill="#5F6670" d="M41.408,6.808H8.594c-3.365,0-6.094,2.727-6.094,6.092v24.201c0,3.367,2.729,6.092,6.094,6.092h32.814
			c3.365,0,6.092-2.727,6.092-6.092V12.899C47.5,9.535,44.773,6.808,41.408,6.808z M44.625,37.102c0,1.773-1.443,3.215-3.217,3.215
			H8.594c-1.773,0-3.217-1.442-3.217-3.215V12.899c0-1.773,1.443-3.215,3.217-3.215h32.814c1.773,0,3.217,1.442,3.217,3.215V37.102
			L44.625,37.102z"/>
	</g>
</g>
<g>
	<g>
		<g>
			<path fill="#5F6670" d="M46.49,88.063l-6.949-6.95c-1.385-1.378-3.677-1.337-5.108,0.096l-3.502,3.5
				c-0.222-0.122-0.449-0.249-0.69-0.384c-2.212-1.225-5.238-2.904-8.422-6.091c-3.194-3.193-4.875-6.224-6.104-8.437
				c-0.129-0.234-0.254-0.46-0.376-0.675l2.35-2.346l1.155-1.157c1.435-1.435,1.475-3.727,0.093-5.109l-6.949-6.951
				c-1.381-1.38-3.675-1.339-5.109,0.096l-1.958,1.97l0.054,0.053c-0.657,0.838-1.206,1.805-1.614,2.847
				c-0.376,0.992-0.611,1.938-0.718,2.887c-0.917,7.607,2.559,14.56,11.993,23.995c13.04,13.041,23.551,12.056,24.004,12.008
				c0.986-0.118,1.934-0.354,2.896-0.728c1.032-0.403,1.999-0.952,2.837-1.607l0.042,0.038l1.983-1.943
				C47.829,91.74,47.871,89.448,46.49,88.063z"/>
		</g>
	</g>
</g>
<g>
	<g>
		<path fill="#5F6670" d="M6.818,118.22c0.569,0.401,2.286,1.595,5.148,3.578c2.863,1.984,5.056,3.511,6.58,4.583
			c0.167,0.117,0.523,0.373,1.067,0.766c0.544,0.396,0.996,0.713,1.356,0.955c0.36,0.242,0.795,0.515,1.306,0.816
			c0.511,0.301,0.992,0.527,1.444,0.676c0.452,0.152,0.871,0.227,1.255,0.227H25h0.025c0.385,0,0.804-0.073,1.257-0.227
			c0.451-0.148,0.934-0.375,1.443-0.676c0.51-0.303,0.945-0.574,1.305-0.816c0.361-0.242,0.812-0.561,1.357-0.955
			c0.543-0.394,0.898-0.647,1.066-0.766c1.539-1.071,5.457-3.792,11.752-8.161c1.221-0.854,2.242-1.883,3.062-3.089
			c0.82-1.205,1.23-2.469,1.23-3.792c0-1.105-0.396-2.051-1.193-2.837c-0.795-0.787-1.736-1.18-2.824-1.18H6.518
			c-1.289,0-2.281,0.435-2.976,1.305c-0.695,0.871-1.042,1.959-1.042,3.265c0,1.055,0.46,2.198,1.381,3.428
			S5.781,117.517,6.818,118.22z"/>
		<path fill="#5F6670" d="M44.988,120.907c-5.49,3.716-9.66,6.604-12.506,8.663c-0.953,0.703-1.729,1.253-2.322,1.646
			c-0.594,0.394-1.385,0.795-2.373,1.205s-1.909,0.615-2.762,0.615H25h-0.025c-0.854,0-1.774-0.205-2.762-0.615
			c-0.987-0.41-1.779-0.812-2.373-1.205c-0.594-0.393-1.368-0.94-2.322-1.646c-2.26-1.656-6.42-4.544-12.48-8.663
			c-0.955-0.636-1.8-1.364-2.537-2.185v19.938c0,1.105,0.393,2.051,1.18,2.838c0.787,0.787,1.733,1.18,2.838,1.18h36.964
			c1.104,0,2.051-0.393,2.838-1.18s1.18-1.732,1.18-2.838v-19.938C46.779,119.525,45.943,120.254,44.988,120.907z"/>
	</g>
</g>
<g>
	<g>
		<path fill="#5F6670" d="M25.001,152.5L25.001,152.5c-9.001,0-16.264,7.266-16.264,16.262c0,3.145,1,6.139,2.395,8.6l10.597,18.344
			c0.667,1.199,2.005,1.795,3.271,1.795c1.263,0,2.537-0.596,3.269-1.795l10.596-18.334c1.406-2.463,2.398-5.4,2.398-8.592
			C41.265,159.781,33.998,152.5,25.001,152.5z M25.001,173.566c-3.271,0-5.939-2.668-5.939-5.934c0-3.27,2.668-5.938,5.939-5.938
			c3.268,0,5.936,2.668,5.936,5.938C30.937,170.914,28.269,173.566,25.001,173.566z"/>
	</g>
</g>
<g>
	<g>
		<path fill="#5F6670" d="M17.173,207.369c0.783-0.832,0.743-2.142-0.089-2.923l-1.417-1.334l-1.417,1.334
			c-0.029,0.025-0.062,0.06-0.089,0.088c-0.783,0.833-0.743,2.142,0.089,2.924S16.392,208.2,17.173,207.369z"/>
		<path fill="#5F6670" d="M26.506,207.369c0.783-0.832,0.742-2.142-0.09-2.923L25,203.112l-1.417,1.334
			c-0.029,0.025-0.062,0.06-0.089,0.088c-0.782,0.833-0.743,2.142,0.089,2.924S25.722,208.2,26.506,207.369z"/>
		<path fill="#5F6670" d="M35.838,207.369c0.783-0.832,0.742-2.142-0.09-2.923l-1.416-1.334l-1.418,1.334
			c-0.027,0.025-0.061,0.06-0.088,0.088c-0.783,0.833-0.742,2.142,0.088,2.924C33.746,208.24,35.057,208.2,35.838,207.369z"/>
		<path fill="#5F6670" d="M15.667,208.979c-1.104,0-2,0.896-2,2v4.303h4v-4.303C17.667,209.875,16.771,208.979,15.667,208.979z"/>
		<path fill="#5F6670" d="M25,208.979c-1.104,0-2,0.896-2,2v4.303h4v-4.303C27,209.875,26.104,208.979,25,208.979z"/>
		<path fill="#5F6670" d="M34.332,208.979c-1.104,0-2,0.896-2,2v4.303h4v-4.303C36.332,209.875,35.438,208.979,34.332,208.979z"/>
		<path fill="#5F6670" d="M43.232,220.759c0-2.285-1.857-4.144-4.143-4.144H10.91c-2.285,0-4.144,1.858-4.144,4.144v6.699h36.467
			V220.759L43.232,220.759z"/>
		<path fill="#5F6670" d="M44.689,230.125h-1.457H6.766H5.311c-1.55,0-2.811,1.261-2.811,2.812v11.14
			c0,1.548,1.261,2.812,2.811,2.812h39.381c1.549,0,2.809-1.264,2.809-2.812v-11.14C47.5,231.386,46.238,230.125,44.689,230.125z"/>
	</g>
</g>
<g>
	<path fill="#5F6670" d="M41.875,268.069v23.806c0,3.106-2.519,5.625-5.625,5.625H8.125c-3.106,0-5.625-2.519-5.625-5.625V263.75
		c0-3.106,2.519-5.625,5.625-5.625H31.93l-5.622,5.625H8.125v28.125H36.25v-18.18L41.875,268.069z M37.558,256.477l-1.989,1.989
		l5.966,5.967l1.989-1.988L37.558,256.477z M41.534,252.5l-1.988,1.988l5.966,5.967l1.988-1.989L41.534,252.5z M15.684,278.356
		l5.966,5.966l17.896-17.899l-5.966-5.968L15.684,278.356z M13.75,286.25h5.625l-5.625-5.625V286.25z"/>
</g>
</svg>
