<?xml version="1.0" encoding="utf-8"?>
<!-- Generator: Adobe Illustrator 16.0.0, SVG Export Plug-In . SVG Version: 6.00 Build 0)  -->
<!DOCTYPE svg PUBLIC "-//W3C//DTD SVG 1.1//EN" "http://www.w3.org/Graphics/SVG/1.1/DTD/svg11.dtd">
<svg version="1.1" id="Layer_1" xmlns="http://www.w3.org/2000/svg" xmlns:xlink="http://www.w3.org/1999/xlink" x="0px" y="0px"
	 width="50px" height="50px" viewBox="0 0 50 50" enable-background="new 0 0 50 50" xml:space="preserve">
<g>
	<path fill="#5F6570" d="M24.946,29.133c-6.262,0-11.336-6.082-11.336-13.58C13.61,8.057,18.684,2.5,24.946,2.5
		c6.264,0,11.341,5.557,11.341,13.053C36.287,23.051,31.21,29.133,24.946,29.133z M7.313,47.491c0,0-2.405,0.159-3.464-1.301
		c-0.572-0.787-0.174-2.385,0.217-3.277l0.958-2.184c0,0,2.651-5.929,5.668-9.364c1.854-2.105,4.058-1.626,5.484-0.941
		c0.878,0.422,1.871,1.65,2.597,2.301c1,0.897,2.765,1.916,5.651,1.975h1.771c2.884-0.059,4.649-1.077,5.648-1.975
		c0.725-0.65,1.69-1.917,2.562-2.353c1.309-0.654,3.301-1.058,5.104,0.993c3.02,3.437,5.408,9.472,5.408,9.472l0.983,2.143
		c0.405,0.884,0.822,2.475,0.267,3.273c-0.993,1.429-3.223,1.238-3.223,1.238H7.313z"/>
</g>
</svg>
