<?xml version="1.0" encoding="utf-8"?>
<!-- Generator: Adobe Illustrator 16.0.0, SVG Export Plug-In . SVG Version: 6.00 Build 0)  -->
<!DOCTYPE svg PUBLIC "-//W3C//DTD SVG 1.1//EN" "http://www.w3.org/Graphics/SVG/1.1/DTD/svg11.dtd">
<svg version="1.1" id="Layer_1" xmlns="http://www.w3.org/2000/svg" xmlns:xlink="http://www.w3.org/1999/xlink" x="0px" y="0px"
	 width="150px" height="150px" viewBox="0 0 150 150" enable-background="new 0 0 150 150" xml:space="preserve">
<g id="Group">
	<path fill="#723B24" d="M75,75.06c12.271,0,21.814-12.73,21.814-25.905v-4.129c0-13.174-9.543-22.523-21.814-22.523
		c-12.273,0-21.818,9.347-21.818,22.523v4.129C53.182,62.33,62.727,75.06,75,75.06z M31.29,79.32c3.51,0,13.111-4.553,13.111-14v-7
		c0-9.447-6.926-13.999-13.111-13.999c-5.979,0-13.111,4.551-13.111,13.999v7C18.178,74.768,27.967,79.32,31.29,79.32z
		 M109.847,96.823c-0.006-0.068-0.027-0.134-0.033-0.202c-0.104-0.823-0.263-1.63-0.479-2.42c0-0.006,0-0.014-0.008-0.022
		c-0.457-1.676-1.23-3.292-2.385-4.886v-0.009c-1.892-2.619-4.752-5.294-9.393-7.899c-2.452-1.378-3.535-2.01-5.05-2.01
		c-2.415,0-4.521,1.876-8.066,5.135h-0.006l-3.227,2.965C81.084,87.584,77.603,92.5,75,92.5c-2.604,0-6.084-4.916-6.2-5.025
		l-3.227-2.965h-0.007c-3.547-3.259-5.652-5.135-8.065-5.135c-1.518,0-2.871,0.632-5.052,2.01c-4.499,2.841-7.499,5.277-9.384,7.895
		l-0.008,0.005c-0.007,0.006-0.007,0.017-0.012,0.022c-1.143,1.58-1.909,3.186-2.365,4.854c-0.007,0.014-0.015,0.029-0.021,0.046
		c-0.212,0.785-0.369,1.581-0.472,2.396c-0.007,0.076-0.027,0.147-0.034,0.225c-0.096,0.869-0.15,1.752-0.15,2.671
		c0,0.102-0.002,19.16,0,19.25c0,6.221,2.345,8.75,8.749,8.75h52.499c6.458,0,8.75-2.393,8.75-8.75c0-0.09,0-19.148,0-19.25
		C109.997,98.581,109.942,97.695,109.847,96.823z M118.788,79.32c3.505,0,13.108-4.553,13.108-14v-7
		c0-9.447-6.926-13.999-13.108-13.999c-5.983,0-13.114,4.551-13.114,13.999v7C105.674,74.768,115.463,79.32,118.788,79.32z
		 M14.956,88.792c-8.141,4.638-9.953,12.026-9.953,16.833c0,0.074-0.007,8.679,0,8.75c0,6.349,2.133,8.75,8.75,8.75h17.499
		c0,0,0-18.594,0-26.25L26.876,92.5C22.249,88.418,18.346,86.867,14.956,88.792z M31.251,96.875
		C31.348,96.957,31.251,94.797,31.251,96.875L31.251,96.875z M144.997,105.625c0-4.807-1.813-12.195-9.953-16.833
		c-3.391-1.925-7.293-0.374-11.919,3.708l-4.375,4.375c0,7.656,0,26.25,0,26.25h17.497c6.617,0,8.75-2.401,8.75-8.75
		C145.005,114.304,144.997,105.699,144.997,105.625z M118.747,96.875C118.747,94.797,118.651,96.957,118.747,96.875L118.747,96.875z
		"/>
</g>
</svg>
